HIERARCHY
ROOT Hips
{
	OFFSET 0.000000 0.000000 0.000000 
	CHANNELS 6 Xposition Yposition Zposition Zrotation Yrotation Xrotation
	JOINT LeftUpLeg
	{
		OFFSET 1.363060 -1.794630 0.839290 
		CHANNELS 3 Zrotation Yrotation Xrotation
		JOINT LeftLeg
		{
			OFFSET 2.448110 -6.726130 0.000000 
			CHANNELS 3 Zrotation Yrotation Xrotation
			JOINT LeftFoot
			{
				OFFSET 2.562200 -7.039590 0.000000 
				CHANNELS 3 Zrotation Yrotation Xrotation
				JOINT LeftToeBase
				{
					OFFSET 0.157640 -0.433110 2.322550 
					CHANNELS 3 Zrotation Yrotation Xrotation
					End Site
					{
						OFFSET 0.000000 0.000000 0.000000 
					}
				}
			}
		}
	}
	JOINT RightUpLeg
	{
		OFFSET -1.305520 -1.794630 0.839290 
		CHANNELS 3 Zrotation Yrotation Xrotation
		JOINT RightLeg
		{
			OFFSET -2.542530 -6.985550 0.000000 
			CHANNELS 3 Zrotation Yrotation Xrotation
			JOINT RightFoot
			{
				OFFSET -2.568260 -7.056230 0.000000 
				CHANNELS 3 Zrotation Yrotation Xrotation
				JOINT RightToeBase
				{
					OFFSET -0.164730 -0.452590 2.363150 
					CHANNELS 3 Zrotation Yrotation Xrotation
					End Site
					{
						OFFSET 0.000000 0.000000 0.000000 
					}
				}
			}
		}
	}
	JOINT Spine
	{
		OFFSET 0.028270 2.035590 -0.193380 
		CHANNELS 3 Zrotation Yrotation Xrotation
		JOINT Spine1
		{
			OFFSET 0.056720 2.048850 -0.042750 
			CHANNELS 3 Zrotation Yrotation Xrotation
			JOINT Neck1
			{
				OFFSET -0.054170 1.746240 0.172020 
				CHANNELS 3 Zrotation Yrotation Xrotation
				JOINT Head
				{
					OFFSET 0.104070 1.761360 -0.123970 
					CHANNELS 3 Zrotation Yrotation Xrotation
					End Site
					{
						OFFSET 0.000000 0.000000 0.000000 
					}
				}
			}
			JOINT LeftArm
			{
				OFFSET 3.362410 1.200890 -0.311210 
				CHANNELS 3 Zrotation Yrotation Xrotation
				JOINT LeftForeArm
				{
					OFFSET 4.983000 -0.000000 -0.000000 
					CHANNELS 3 Zrotation Yrotation Xrotation
					JOINT LeftHand
					{
						OFFSET 3.483560 -0.000000 -0.000000 
						CHANNELS 3 Zrotation Yrotation Xrotation
						JOINT LeftHandIndex1
						{
							OFFSET 0.715260 -0.000000 -0.000000 
							CHANNELS 3 Zrotation Yrotation Xrotation
							End Site
							{
								OFFSET 0.000000 0.000000 0.000000 
							}
						}
					}
				}
			}
			JOINT RightArm
			{
				OFFSET -3.136600 1.374050 -0.404650 
				CHANNELS 3 Zrotation Yrotation Xrotation
				JOINT RightForeArm
				{
					OFFSET -5.241900 -0.000000 -0.000000 
					CHANNELS 3 Zrotation Yrotation Xrotation
					JOINT RightHand
					{
						OFFSET -3.444170 -0.000000 -0.000000 
						CHANNELS 3 Zrotation Yrotation Xrotation
						JOINT RightHandIndex1
						{
							OFFSET -0.622530 -0.000000 -0.000000 
							CHANNELS 3 Zrotation Yrotation Xrotation
							End Site
							{
								OFFSET 0.000000 0.000000 0.000000 
							}
						}
					}
				}
			}
		}
	}
}
MOTION
Frames: 10
Frame Time: 0.041667
2.843222 17.875664 -0.241106 -30.223017 76.930221 -26.173413 -16.942312 5.059024 -2.089320 0.304329 0.744124 6.379329 0.257610 1.493328 -11.851799 0.371800 -3.916700 -10.842300 30.437914 3.386293 -8.653185 -0.869614 -3.427647 16.687367 0.220017 5.319542 3.333676 -0.532000 4.673800 -12.980600 7.045762 -0.725671 9.387939 1.548231 -0.304395 -1.658256 15.791604 7.486615 14.487366 4.790400 4.209700 1.371000 -74.773128 -22.127448 67.935377 144.526006 -41.534680 -105.262423 1.875679 2.085266 -28.359692 -7.125000 0.000000 0.000000 32.099964 71.940692 -1.133852 -119.479625 56.884854 -83.993660 1.232657 1.732395 -29.310597 7.125000 0.000000 0.000000 
2.842926 17.875270 -0.238446 -29.987170 76.905993 -26.013870 -16.946245 5.131247 -1.991305 0.302791 0.732923 6.354262 0.264361 1.447985 -11.881303 0.343700 -3.767200 -10.422600 30.419706 3.250206 -8.632388 -0.875622 -3.428877 16.702148 0.219528 5.431222 3.419850 -0.550400 4.752800 -13.204800 7.156207 -0.754437 9.396854 1.721626 -0.312458 -1.720597 15.770458 7.406883 14.620062 4.794500 4.177000 1.416300 -75.029951 -22.117701 67.987140 144.449485 -41.607022 -105.218805 1.822012 2.081971 -28.414944 -7.125000 0.000000 0.000000 33.416827 71.530482 1.151476 -118.484716 57.090567 -83.100908 1.232412 1.724854 -28.808659 7.125000 0.000000 0.000000 
2.841448 17.875369 -0.234603 -29.412230 76.910385 -25.459814 -17.058992 5.174070 -2.003898 0.304070 0.741480 6.386176 0.262316 1.485289 -11.899938 0.357200 -3.839600 -10.626000 30.321114 3.168814 -8.663967 -0.875967 -3.422804 16.684807 0.218192 5.508288 3.465345 -0.564100 4.810600 -13.369300 7.184988 -0.767004 9.414937 1.855556 -0.312616 -1.735098 15.813547 7.384692 14.729941 4.825100 4.171800 1.454700 -75.200781 -22.154676 68.065902 144.379858 -41.667913 -105.169331 1.807522 2.087600 -28.556452 -7.125000 0.000000 0.000000 34.943663 70.988069 3.550637 -117.622814 57.237464 -82.341584 1.244587 1.718748 -28.396468 7.125000 0.000000 0.000000 
2.839872 17.873497 -0.230071 -29.141361 76.906297 -25.204611 -17.111183 5.184844 -2.038251 0.307709 0.765520 6.455670 0.261718 1.521546 -11.932277 0.374200 -3.928800 -10.876300 30.291809 3.110821 -8.663730 -0.873797 -3.411841 16.656136 0.216761 5.572251 3.480599 -0.573900 4.851200 -13.484700 7.161405 -0.767387 9.425382 1.888595 -0.307336 -1.757405 15.981695 7.364506 14.801022 4.907900 4.164100 1.471200 -75.251674 -22.114827 68.183586 144.345557 -41.711348 -105.123853 1.828135 2.120519 -28.624129 -7.125000 0.000000 0.000000 36.688356 70.253662 6.024595 -116.978070 57.302722 -81.801019 1.277095 1.710593 -27.984268 7.125000 0.000000 0.000000 
2.837212 17.870541 -0.225046 -29.784625 76.776817 -25.829998 -16.916131 5.200906 -2.133947 0.314925 0.813626 6.572408 0.271763 1.479318 -11.997941 0.369700 -3.905300 -10.810300 30.523191 3.138320 -8.627120 -0.866162 -3.398353 16.621575 0.215688 5.563908 3.418971 -0.577500 4.866300 -13.527600 7.164559 -0.722549 9.402636 1.796391 -0.281483 -1.828810 16.138141 7.363346 14.776934 4.980200 4.161600 1.461200 -75.215493 -22.035477 68.304441 144.344842 -41.707722 -105.126449 1.810560 2.116677 -28.705648 -7.125000 0.000000 0.000000 38.330744 69.322789 8.339588 -116.518460 57.304096 -81.442478 1.321826 1.697805 -27.384398 7.125000 0.000000 0.000000 
2.834650 17.869358 -0.219922 -29.645306 76.735280 -25.692587 -16.926426 5.209683 -2.234363 0.324408 0.869581 6.724597 0.278268 1.480575 -12.072218 0.386600 -3.992700 -11.056200 30.542619 3.159067 -8.600006 -0.859037 -3.381193 16.573236 0.216084 5.551951 3.407161 -0.553400 4.765200 -13.240100 7.125960 -0.672364 9.393558 1.788081 -0.252676 -1.891707 16.039179 7.514682 14.467997 4.920300 4.213800 1.351000 -75.248513 -22.008187 68.400909 144.378656 -41.673165 -105.163262 1.768294 2.123842 -28.848474 -7.125000 0.000000 0.000000 39.666898 68.352972 10.412655 -116.185024 57.272921 -81.186464 1.351186 1.681293 -26.746898 7.125000 0.000000 0.000000 
2.833763 17.867388 -0.215587 -29.319454 76.745487 -25.333323 -17.026349 5.160771 -2.409959 0.342992 0.964096 6.986458 0.291826 1.437450 -12.174699 0.405900 -4.090200 -11.330600 30.487837 3.045563 -8.629118 -0.849773 -3.350052 16.482592 0.217202 5.627970 3.508476 -0.550200 4.751800 -13.202000 7.051596 -0.624093 9.372585 1.781516 -0.226302 -1.929605 15.999349 7.676255 14.184383 4.888100 4.275100 1.256600 -75.254585 -21.992035 68.499056 144.405088 -41.646416 -105.187134 1.749704 2.131060 -28.922866 -7.125000 0.000000 0.000000 41.049953 67.395491 12.323934 -115.966515 57.210209 -81.034458 1.371602 1.664605 -26.398786 7.125000 0.000000 0.000000 
2.833073 17.865516 -0.211054 -29.297790 76.718173 -25.289734 -17.019501 5.146387 -2.502198 0.353921 1.016101 7.125845 0.303910 1.362731 -12.226855 0.406300 -4.091900 -11.335400 30.507574 2.969896 -8.645329 -0.845760 -3.332508 16.433804 0.217533 5.718258 3.597777 -0.537400 4.697100 -13.046600 6.943515 -0.552140 9.326602 1.687392 -0.191512 -2.010883 15.928493 7.770706 13.753105 4.844300 4.290200 1.107200 -75.202103 -21.949377 68.607189 144.404181 -41.643475 -105.185595 1.751795 2.122338 -28.909668 -7.125000 0.000000 0.000000 42.652554 66.443167 14.089576 -115.755452 57.141677 -80.892507 1.381898 1.665683 -26.424295 7.125000 0.000000 0.000000 
2.830610 17.862757 -0.205635 -29.493569 76.648368 -25.435003 -16.943551 5.142404 -2.621761 0.362261 1.056237 7.226558 0.313850 1.288867 -12.256776 0.400800 -4.064800 -11.258900 30.610092 2.978357 -8.661897 -0.839937 -3.320079 16.396098 0.218355 5.723064 3.620853 -0.507000 4.564300 -12.669900 6.780065 -0.495729 9.339586 1.500562 -0.168312 -2.001495 15.772808 7.878017 13.167487 4.763200 4.299900 0.908800 -75.024273 -22.009870 68.561001 144.396902 -41.617488 -105.195785 1.744173 2.108437 -28.997998 -7.125000 0.000000 0.000000 44.262667 65.725068 15.524752 -115.673441 57.055433 -80.868335 1.395012 1.671165 -26.626016 7.125000 0.000000 0.000000 
2.828147 17.860589 -0.201103 -29.439097 76.648432 -25.343368 -16.961333 5.089800 -2.754611 0.374807 1.115020 7.385261 0.328655 1.209172 -12.333059 0.391200 -4.016400 -11.122800 30.629761 2.925450 -8.682213 -0.830651 -3.295420 16.323585 0.221747 5.702870 3.692249 -0.477000 4.429000 -12.286900 6.568298 -0.449767 9.415982 1.302346 -0.149855 -1.889445 15.794410 8.060164 12.864977 4.765400 4.371900 0.819200 -74.840553 -22.170308 68.529718 144.369956 -41.599098 -105.186604 1.762560 2.100932 -29.050263 -7.125000 0.000000 0.000000 45.387068 65.143870 16.265894 -115.833250 56.944992 -81.059660 1.412858 1.664397 -26.647074 7.125000 0.000000 0.000000 
